<svg width="141" height="84" viewBox="0 0 141 84" fill="none" xmlns="http://www.w3.org/2000/svg">
<path fill-rule="evenodd" clip-rule="evenodd" d="M0 60.1633L1.10148 59.3781C1.48904 59.0769 1.72362 58.8403 2.15197 58.5499C2.53953 58.2702 2.8557 58.0121 3.22286 57.7324C3.59002 57.4635 3.95718 57.2484 4.32434 56.9472L5.39523 56.1405C5.76239 55.8716 6.09895 55.5489 6.45591 55.3123C6.90467 55.0219 7.12904 54.9143 7.5574 54.5379C8.01635 54.1291 8.25092 54.0538 8.70987 53.6559L15.8185 48.3639C16.0429 48.2133 16.0837 48.138 16.3285 47.9337L25.1607 41.394C25.4157 41.2004 25.4259 41.1574 25.6707 40.953C25.9766 40.7056 26.0072 40.7379 26.3234 40.512L50.3826 22.5279C50.811 22.2268 51.0558 22.0117 51.4637 21.732L55.3393 18.8494C55.6759 18.5697 55.5433 18.6558 55.8799 18.4514L57.0323 17.5587C57.4505 17.2252 57.7157 17.1069 58.1338 16.7842L69.6484 8.21167C69.934 8.02882 69.985 7.93202 70.2705 7.73841L81.7953 16.3002C82.0299 16.4723 82.0503 16.5476 82.2849 16.752C83.1416 17.4941 84.2532 18.0534 85.1099 18.7848C87.0681 20.4735 90.1176 22.571 92.29 24.1521C92.7081 24.4533 92.8713 24.6576 93.3405 24.9911L107.191 35.2953C108.109 35.9837 109.7 37.0271 110.505 37.7907C110.781 38.0489 110.679 37.9843 111.015 38.221C111.433 38.5329 111.719 38.705 112.127 38.9954L125.416 48.9232C126.416 49.8698 127.65 50.4183 128.649 51.3326C129.496 52.107 130.546 52.7201 131.454 53.3977L139.797 59.647C140.245 59.9266 140.449 60.3354 141 60.4859V52.8814C140.429 52.8277 139.429 51.8273 138.848 51.4294L137.288 50.3215C137.073 50.1386 137.022 50.0418 136.808 49.859C135.666 48.8694 134.259 48.0627 133.065 47.17L125.283 41.2972C122.571 39.1245 118.389 36.3925 115.87 34.2412C115.462 33.8863 115.768 34.1552 115.401 33.9186C115.146 33.7572 115.411 33.9616 115.115 33.7357L107.395 28.1211V9.68525C107.395 8.94308 107.68 7.41573 106.936 7.41573H97.573V20.5166C96.9917 20.3767 97.0835 20.3767 96.6959 20.0003C95.9514 19.2689 95.0641 18.7633 94.1666 18.1287C93.7892 17.8598 93.7178 17.7738 93.3915 17.4941L89.9748 14.9449C89.7199 14.7836 89.8524 14.9019 89.5873 14.7083C89.3731 14.5577 89.3629 14.5147 89.1793 14.3319L73.0752 2.3604C70.9335 0.746994 70.6377 -0.221049 69.0671 1.12345C68.6999 1.43538 68.3021 1.68277 67.8738 1.97318L52.249 13.6542C51.9635 13.8586 51.8513 13.8801 51.5759 14.0737C51.2088 14.3426 51.3311 14.2996 51.0762 14.5255C50.862 14.7191 51.1884 14.4824 50.8212 14.7406C50.6274 14.8804 50.7294 14.7944 50.5356 14.9127C49.9543 15.2569 49.9033 15.429 49.3729 15.8054L40.0409 22.7753C39.7656 22.9689 39.7656 22.9152 39.48 23.1625C39.1842 23.3992 39.2352 23.4099 38.8783 23.6681L30.7497 29.6592C30.3316 29.9496 29.995 30.283 29.6075 30.5412C28.1898 31.477 26.3132 33.1764 24.9363 34.0369C24.4672 34.3381 24.1816 34.6392 23.7737 34.9081C23.2943 35.2416 23.0699 35.4137 22.6008 35.7794C20.2143 37.6402 17.3178 39.5009 15.074 41.4263L9.83175 45.2877C9.4442 45.5458 9.10763 45.8793 8.67928 46.1804L0.448752 52.2253C0.203978 52.4189 0.0713924 52.7631 0 53.1611V55.9577C0 57.3559 0 58.765 0 60.1633Z" fill="#303464"/>
<path fill-rule="evenodd" clip-rule="evenodd" d="M13.1973 59.1952V83.7835H19.031V62.7555C19.031 62.1854 19.5818 62.0456 19.9591 61.7982C21.9683 60.4214 24.824 58.1304 26.823 56.5815C27.1392 56.3341 27.3432 56.2911 27.6899 56.033L40.51 46.4171C40.8261 46.2127 41.0403 46.1159 41.3667 45.8578L44.9057 43.1257C45.0077 43.0397 45.1913 42.9321 45.2831 42.8784L49.3014 39.8236C49.638 39.5655 49.3626 39.7806 49.6788 39.587L53.3606 36.8227C55.023 35.3706 57.8787 33.5851 59.7247 32.0578C60.0715 31.7674 60.2143 31.7674 60.561 31.477L62.9782 29.6592C65.4463 27.949 67.8023 25.9806 70.2704 24.2382C71.7289 25.5827 73.4729 26.5937 75.0027 27.8307C75.0639 27.8737 75.2985 28.0673 75.3495 28.1103L77.4607 29.6054C77.8788 29.8636 77.8482 29.9281 78.2256 30.2508C78.5111 30.5089 78.7151 30.595 79.0619 30.8209L82.2949 33.241C83.8758 34.4026 85.5586 35.5212 87.0374 36.812L97.4913 44.5671C97.8789 44.8467 97.8891 44.9005 98.297 45.1694L115.176 57.7754C115.441 57.9798 115.717 58.2272 115.962 58.4101C116.339 58.679 116.441 58.6574 116.788 58.9909C117.236 59.3996 116.992 59.2813 117.583 59.6147L120.011 61.4217C120.49 61.8412 120.347 61.6691 120.857 61.9918C121.234 62.2284 121.357 62.2715 121.357 62.9168V83.7835H127.191V59.5179C127.191 58.9909 125.079 57.6679 124.529 57.3129L113.942 49.3857C113.912 49.3642 113.871 49.332 113.85 49.3105L99.7861 38.748C99.3985 38.4361 99.2252 38.4146 98.8478 38.1134L94.4419 34.8328C92.4837 33.4346 90.6173 31.7889 88.6081 30.4659C86.9253 29.358 85.3954 28.0458 83.7738 26.8304L75.7064 20.7747C75.3189 20.5058 75.0945 20.4413 74.7579 20.1509C73.3709 18.9462 71.7595 17.8598 70.2704 16.795L64.9058 20.6887C63.9777 21.2695 63.2434 22.0547 62.3255 22.657C61.9073 22.9259 61.7747 22.9905 61.3872 23.2916L58.5213 25.4428C58.4805 25.4859 58.2663 25.6687 58.2663 25.6687L45.2933 35.2738C44.9567 35.4997 45.0995 35.4244 44.8649 35.6396L35.5329 42.6202C35.1657 42.8784 34.972 43.0074 34.615 43.2656C34.2172 43.556 34.1968 43.6528 33.8399 43.9109C32.7996 44.6639 31.8001 45.5781 30.6986 46.2557L29.3524 47.2668C28.669 47.7293 28.2101 48.1058 27.5267 48.579L15.9714 57.2592C15.1351 57.8507 14.1764 58.9156 13.1973 59.1952Z" fill="#59B039"/>
<path fill-rule="evenodd" clip-rule="evenodd" d="M20.1025 65.9823C20.5105 66.2296 20.6329 66.1543 21.3264 66.1543V79.7392C19.919 79.7392 20.5003 79.6962 20.1025 79.9006C20.2759 80.6858 20.4187 80.675 21.4488 80.5352C22.7645 80.3523 25.2734 80.2985 26.589 80.5137C27.6395 80.675 27.8945 80.7288 28.0781 79.9006C27.7007 79.6855 27.7925 79.7392 27.1602 79.7392V71.6507H29.4549V79.7392C28.537 79.7392 28.5574 79.6962 28.537 80.5459L33.1469 80.3846C34.4422 80.3846 35.0949 80.5459 36.3596 80.5459C36.3494 79.6424 36.38 79.7392 35.1357 79.7392V66.1543C36.38 66.1543 36.3494 66.2512 36.3596 65.3369L31.4539 65.4982C30.2504 65.4982 29.7099 65.3369 28.537 65.3369C28.5574 66.1974 28.537 66.1543 29.4549 66.1543V71.0053H27.1602V66.1543C28.2821 66.1221 28.0067 65.8747 28.0781 65.6596C27.4457 64.9604 27.2622 65.4982 25.3142 65.4982C23.9781 65.4982 22.4993 65.5735 21.2754 65.3692C20.2657 65.2078 20.2861 65.2401 20.1025 65.9823Z" fill="#303464"/>
<path fill-rule="evenodd" clip-rule="evenodd" d="M70.5764 51.5908H77.7871V58.5499H70.5764V51.5908ZM62.7539 51.5908H69.8115V58.5499H62.7539V51.5908ZM70.5764 43.8249H77.7871V50.612H70.5764V43.8249ZM62.7539 43.8249H69.8115V50.612H62.7539V43.8249ZM60.7549 60.6473H79.7861V41.7167H60.7549V60.6473Z" fill="#59B039"/>
<path fill-rule="evenodd" clip-rule="evenodd" d="M68.7307 71.9734C69.8016 71.9734 69.465 72.0487 70.0871 72.8232L72.4125 75.8564C72.1167 76.093 71.9433 76.4372 71.617 76.7921C71.26 77.1794 71.0866 77.3837 70.6379 77.7064L68.8429 78.7282C68.1799 78.9971 68.6899 78.5023 68.2717 79.0939C69.1284 79.3306 70.8623 80.8041 71.8006 81.03C74.3299 79.2553 74.4727 77.1148 74.8704 76.5017V79.9006H74.2585V80.546L77.1754 80.3846C78.1035 80.3846 78.2973 80.546 79.1642 80.546V79.9006H78.5522V76.6631C79.0214 77.3837 79.0826 79.2445 81.6221 81.03L85.1509 78.9326C83.4273 78.5023 81.7343 77.1471 81.0102 75.695C81.3671 75.254 83.7027 71.9734 84.233 71.9734H84.692V71.3281L81.9281 71.4894C80.9082 71.4894 80.6022 71.3281 79.6231 71.3281C79.6537 72.6833 79.8883 71.4141 79.8373 72.2638C79.8373 72.3929 79.5313 72.9953 79.4803 73.1028L78.5522 74.8883V71.9734H79.1642V71.3281C78.2157 71.3281 77.6649 71.5647 76.8694 71.4894L74.4115 71.2958V71.9734H74.8704V74.8883C74.7276 74.7162 74.8704 74.9421 74.6766 74.6087C74.6053 74.4796 74.5237 74.3182 74.4625 74.1892C73.208 71.5755 73.0244 72.0487 73.7995 71.9734V71.3281L71.0356 71.4894C70.0157 71.4894 69.7098 71.3281 68.7307 71.3281V71.9734Z" fill="#303464"/>
<path fill-rule="evenodd" clip-rule="evenodd" d="M86.3745 71.812H86.8436V79.9006C85.9461 79.9006 85.9767 79.8468 85.9155 80.5459C86.9864 80.5459 87.8023 80.3093 88.6794 80.3846L91.1272 80.5782L91.1374 79.9006H90.5254V75.3723H92.6672V79.9006H92.0552V80.5459C93.1261 80.5459 93.5239 80.3846 94.5132 80.3846C95.5025 80.3846 96.4408 80.7288 97.1139 80.3846C96.9813 79.8576 97.1037 79.9006 96.196 79.9006V71.812C97.1037 71.812 96.9813 71.8551 97.1139 71.328C96.4714 71.0053 95.3597 71.328 94.3602 71.328C93.3403 71.328 93.0241 71.1667 92.0552 71.1667C92.1062 71.7583 92.1062 71.7583 92.6672 71.812V74.8883H90.5254V71.812C91.0864 71.7583 91.0864 71.7583 91.1374 71.1667L88.5264 71.328C87.4148 71.328 86.9864 71.1667 85.9155 71.1667C85.9563 71.6184 85.9155 71.812 86.3745 71.812Z" fill="#303464"/>
<path fill-rule="evenodd" clip-rule="evenodd" d="M113.993 75.8563H115.839V79.9005H113.993V75.8563ZM113.993 72.296H115.533V75.2109H113.993V72.296ZM108.935 71.812C109.016 72.1777 109.047 72.1885 109.088 72.6187L109.995 72.4359L110.026 79.1261C109.934 80.6104 109.587 78.6313 109.241 80.2232C109.353 80.2878 119.674 81.9657 119.674 77.6418C119.674 76.2973 118.715 75.4476 117.828 75.3723C118.287 74.6516 118.746 74.7161 118.746 73.5975C118.746 70.9731 112.729 71.4141 110.903 71.6184C110.24 71.6937 109.475 71.812 108.935 71.812Z" fill="#303464"/>
<path fill-rule="evenodd" clip-rule="evenodd" d="M61.5198 72.1348C62.0094 72.0164 62.5703 71.9304 63.0599 71.8121V76.9857H62.295C61.8768 76.9857 61.8666 76.9104 61.5198 76.8244V72.1348ZM57.991 74.2429C57.991 75.1034 58.1236 75.6627 58.7355 76.3726C59.1945 76.9104 59.786 76.9642 60.143 77.4805C58.9905 77.8032 59.7044 78.1259 57.2261 78.1259C57.3689 78.6959 57.3179 78.4055 57.634 78.825L59.0721 80.7073C60.6325 80.5782 61.8564 79.3843 62.5907 78.1151C62.9885 77.4267 62.5193 77.8462 63.0599 77.6419V79.7393C62.4683 79.7931 62.5601 79.9006 61.836 79.9006V80.546H67.8126V79.9006C67.0783 79.9006 67.1803 79.7931 66.5887 79.7393V71.8121H67.6596V71.3281C65.6912 71.3281 57.991 70.6612 57.991 74.2429Z" fill="#303464"/>
<path fill-rule="evenodd" clip-rule="evenodd" d="M101.418 79.5779V72.2961C101.418 71.4033 104.478 71.4033 104.478 72.2961V80.0619C103.958 80.0619 101.418 80.5782 101.418 79.5779ZM97.5735 75.5336V76.3403C97.5735 78.6421 100.235 80.7073 102.489 80.7073H103.407C105.896 80.7073 108.374 78.5023 108.445 76.0069C108.517 73.447 105.845 71.1667 103.407 71.1667H102.489C100.235 71.1667 97.5735 73.2318 97.5735 75.5336Z" fill="#303464"/>
<path fill-rule="evenodd" clip-rule="evenodd" d="M43.4169 79.5779C43.0192 79.6102 40.7856 80.2448 40.1839 79.5887C39.9289 79.309 40.0309 76.4264 40.0309 75.8456C40.0309 72.5005 42.2135 77.6741 43.4169 79.5779ZM38.3583 71.9734V72.6188H39.4292C39.6026 73.2857 40.0309 73.5761 40.1941 74.2429C35.7576 75.3293 35.8596 80.3846 42.0401 80.3846C42.6418 80.3846 43.1824 80.2663 43.5699 80.062C43.9167 80.3093 43.7637 80.0942 43.8861 80.546C46.089 80.546 43.9575 79.8899 48.1696 80.5782L48.088 79.9974C47.8331 79.5242 47.935 79.9759 47.4863 79.4919L42.652 71.3281C41.7545 71.4034 40.8162 71.9734 38.3583 71.9734Z" fill="#303464"/>
<path fill-rule="evenodd" clip-rule="evenodd" d="M49.8627 71.8121H50.9336V79.9007H50.1686V80.546C51.2905 80.546 52.1064 80.2986 53.0855 80.3847L55.5333 80.5783L55.5435 79.9007H54.7786V71.8121H56.1554C56.2778 72.3607 56.4818 72.6404 56.6144 73.2642L57.2263 73.0921L56.2982 70.6828C55.9718 69.9729 56.4002 70.274 55.6965 70.1987C55.4313 70.7903 55.6863 70.586 55.8494 71.3281H49.7097C50.4542 69.8545 49.9341 69.349 48.8734 71.9089C48.7408 72.2424 48.0881 73.4148 48.8836 73.1674C49.4241 72.9953 49.0774 71.8121 49.8627 71.8121Z" fill="#303464"/>
<path fill-rule="evenodd" clip-rule="evenodd" d="M105.406 67.4451V65.8209C106.334 65.7994 105.854 65.9285 106.018 65.4982H104.019C104.182 65.9285 103.702 65.7994 104.63 65.8209V69.3812C103.702 69.4027 104.182 69.2844 104.019 69.7039H106.018C105.854 69.2844 106.334 69.4027 105.406 69.3812V67.7678C106.181 67.8323 106.242 68.3271 106.935 69.7039H109.699C109.75 69.0047 110.179 68.682 110.526 68.155L111.535 66.6384V69.3812C110.831 69.4457 111.27 69.2091 110.923 69.7039H112.922C112.759 69.2844 113.238 69.4027 112.31 69.3812V65.8209C113.238 65.7994 112.759 65.9285 112.922 65.4982H111.535C111.484 66.1651 111.046 66.5954 110.74 67.0901C110.556 67.3806 110.454 67.5634 110.25 67.8646C110.046 68.155 109.893 68.3486 109.699 68.5745V65.8209C110.627 65.7994 110.148 65.9285 110.311 65.4982H108.312C108.486 65.9285 108.006 65.7994 108.934 65.8209V69.3812C108.057 69.4027 107.884 69.6931 107.394 68.9079C107.099 68.4347 106.895 67.7678 106.477 67.4451C106.568 67.3053 107.139 66.2404 107.16 66.2189C107.711 65.6703 107.405 66.1544 107.731 66.036C108.006 65.9285 107.996 65.9177 108.006 65.3369C107.037 65.3369 106.946 65.2401 106.497 66.4986C106.242 67.23 106.273 67.4236 105.406 67.4451Z" fill="#59B039"/>
<path fill-rule="evenodd" clip-rule="evenodd" d="M59.6837 67.2837C59.4696 67.7032 59.2656 68.155 59.0718 68.5852C58.7964 69.2091 58.8168 69.478 57.9907 69.5425L59.2248 69.8759L60.1937 67.8L60.7546 67.7678V69.3812C60.0407 69.4457 60.4895 69.2091 60.1427 69.7038H62.1417C61.7949 69.2091 62.2335 69.4457 61.5195 69.3812V67.7678H62.1417C62.3355 68.6713 62.6414 69.2091 63.0596 69.8759H64.2834C63.9979 69.1338 63.3859 69.6823 62.7434 67.6172C62.621 67.2192 62.7944 66.7567 63.08 66.3265C63.6205 65.5198 63.8653 66.5308 64.1305 65.3369C63.1004 65.3369 62.9576 65.3369 62.6516 66.2081C62.3661 67.0579 62.519 67.359 61.5195 67.4451V65.8209C62.2335 65.7672 61.7949 66.0038 62.1417 65.4983H60.1427C60.4895 66.0038 60.0407 65.7672 60.7546 65.8209V67.4451C59.6633 67.3483 59.9999 66.8858 59.2248 65.3369H58.1437C58.4089 66.5416 58.3171 65.5951 59.0208 66.2081C59.184 66.348 59.541 67.0579 59.6837 67.2837Z" fill="#59B039"/>
<path fill-rule="evenodd" clip-rule="evenodd" d="M41.4279 65.8209V69.3812C40.4998 69.4027 40.9791 69.2844 40.8159 69.7038H42.8047C42.6415 69.2844 43.1209 69.4027 42.1928 69.3812V67.7678H44.0388C44.0388 70.3169 43.8552 68.5852 43.4166 69.7038H45.4156C45.2524 69.2844 45.7318 69.4027 44.8037 69.3812V65.8209C45.7318 65.7994 45.2524 65.9285 45.4156 65.4982H43.4166C43.8246 66.5523 44.0388 64.8098 44.0388 67.4451H42.1928V65.8209C43.1209 65.7994 42.6415 65.9285 42.8047 65.4982H40.8159C40.9689 65.907 40.4998 65.8209 41.4279 65.8209Z" fill="#59B039"/>
<path fill-rule="evenodd" clip-rule="evenodd" d="M65.0482 65.8209V69.3812C64.1201 69.4027 64.5995 69.2844 64.4363 69.7038H66.4353C66.2721 69.2844 66.7514 69.4027 65.8233 69.3812V67.7678H67.6591C67.6591 70.3169 67.4755 68.5852 67.0472 69.7038H69.0462C68.8728 69.2844 69.3521 69.4027 68.424 69.3812V65.8209C69.3521 65.7994 68.8728 65.9285 69.0462 65.4982H67.0472C67.4551 66.5523 67.6591 64.8098 67.6591 67.4451H65.8233V65.8209C66.7514 65.7994 66.2721 65.9285 66.4353 65.4982H64.4363C64.5893 65.907 64.1303 65.8209 65.0482 65.8209Z" fill="#59B039"/>
<path fill-rule="evenodd" clip-rule="evenodd" d="M82.5402 65.8209V69.3812C81.6121 69.4027 82.0914 69.2844 81.9282 69.7038H83.9272C83.764 69.2844 84.2434 69.4027 83.3153 69.3812V65.8209H84.9981V69.3812C84.2842 69.4457 84.7329 69.2091 84.3862 69.7038H86.3749C85.8854 68.4346 85.763 71.0591 85.763 66.3157C85.763 65.6381 86.0996 66.2296 86.3749 65.4982H81.9282C82.0812 65.907 81.6223 65.8209 82.5402 65.8209Z" fill="#59B039"/>
<path fill-rule="evenodd" clip-rule="evenodd" d="M54.9312 66.6384C55.176 66.1328 55.2576 65.8209 56.0021 65.8209H56.4611V67.6064H56.0021C55.0536 67.6064 55.1658 67.2084 54.9312 66.6384ZM54.1561 66.6384C54.1561 67.3267 54.4111 67.6172 54.9312 67.7677C54.6457 69.0585 53.7992 69.0477 53.5442 69.7038C56.0939 69.7038 54.5845 67.9721 56.4611 67.9291V69.3812C55.7471 69.4457 56.1959 69.2091 55.8491 69.7038H57.8379C57.6747 69.2843 58.1541 69.4027 57.226 69.3812V65.8209C58.1541 65.7994 57.6747 65.9285 57.8379 65.4982C56.3897 65.4982 54.1561 65.1218 54.1561 66.6384Z" fill="#59B039"/>
<path fill-rule="evenodd" clip-rule="evenodd" d="M47.2511 69.3812C46.5882 69.3812 45.8845 67.6064 48.1792 67.6064C48.1792 68.2088 48.3526 69.3812 47.2511 69.3812ZM46.0273 65.9823C46.0273 66.6061 45.9763 66.0468 46.1802 66.477C47.0573 66.2297 46.5168 65.8209 48.0262 65.8209C48.0772 66.4448 48.1792 66.4663 48.1792 67.2837C44.5076 67.2837 45.8335 69.8759 46.6392 69.8759C47.6999 69.8759 47.2307 69.9082 48.1792 69.3812C48.3424 70.0588 48.5566 69.9512 49.5561 69.7038C49.4949 68.9509 49.7805 69.3166 48.9441 69.3812C48.9441 66.875 49.3215 65.3369 47.2511 65.3369C46.7106 65.3369 46.0273 65.423 46.0273 65.9823Z" fill="#59B039"/>
<path fill-rule="evenodd" clip-rule="evenodd" d="M88.8335 69.5425C87.4159 69.5425 87.3037 65.6596 88.8335 65.6596C90.0982 65.6596 90.394 69.5425 88.8335 69.5425ZM86.8447 67.6064C86.8447 70.801 90.6796 70.3277 90.6796 68.0905C90.6796 66.2727 90.547 65.3369 88.5276 65.3369C87.5179 65.3369 86.8447 66.4986 86.8447 67.6064Z" fill="#59B039"/>
<path fill-rule="evenodd" clip-rule="evenodd" d="M96.9608 69.5425C95.5431 69.5425 95.4309 65.6596 96.9608 65.6596C98.2356 65.6596 98.5314 69.5425 96.9608 69.5425ZM94.9719 67.6064C94.9719 70.801 98.8068 70.3277 98.8068 68.0905C98.8068 66.2727 98.6742 65.3369 96.6548 65.3369C95.6451 65.3369 94.9719 66.4986 94.9719 67.6064Z" fill="#59B039"/>
<path fill-rule="evenodd" clip-rule="evenodd" d="M77.0218 65.6597C77.6541 65.6597 77.7867 66.4018 77.7867 67.1225H76.1039C76.1141 66.4341 76.4201 65.6597 77.0218 65.6597ZM75.1758 67.6065C75.1758 70.317 77.5216 70.0481 78.1641 69.6286C78.5517 69.3705 78.5109 69.4458 78.5517 68.8972C76.0325 70.3063 76.1957 68.0045 75.9407 67.4452C77.1544 67.4452 79.7246 67.9937 78.2865 65.9501C77.44 64.7562 75.1758 65.2617 75.1758 67.6065Z" fill="#59B039"/>
<path fill-rule="evenodd" clip-rule="evenodd" d="M100.643 65.8209C100.643 70.801 99.2658 67.8861 99.1128 69.8759C101.102 69.8759 101.102 67.4343 101.102 65.8209H102.336V68.8971C102.336 69.5748 101.999 68.9832 101.724 69.7038H103.712C103.366 69.2091 103.814 69.4457 103.101 69.3812V65.8209C103.814 65.7671 103.366 66.0038 103.712 65.4982H100.031C100.184 65.907 99.7247 65.8209 100.643 65.8209Z" fill="#59B039"/>
<path fill-rule="evenodd" clip-rule="evenodd" d="M71.1883 69.3811H70.7294V67.4451C72.1572 67.4451 72.1062 67.6064 72.1062 68.7358C72.1062 69.2306 71.6575 69.3811 71.1883 69.3811ZM69.9645 65.8209V69.3811C69.0364 69.4027 69.5157 69.2843 69.3525 69.7038C70.9232 69.7038 73.0343 70.0803 73.0343 68.4131C73.0343 66.9073 71.6677 67.1224 70.7294 67.1224V65.8209C71.6575 65.7994 71.1781 65.9285 71.3413 65.4982H69.3525C69.5055 65.907 69.0364 65.8209 69.9645 65.8209Z" fill="#59B039"/>
<path fill-rule="evenodd" clip-rule="evenodd" d="M90.9846 66.7997H91.2906C91.515 65.7671 91.3926 65.8209 92.5145 65.8209V68.8971C92.5145 69.5748 92.1779 68.9832 91.9025 69.7038H93.8913C93.5548 69.2091 93.9933 69.4457 93.2794 69.3812V65.8209C94.8501 65.8209 93.7486 66.4125 94.6665 66.7997C94.8909 66.3587 94.8195 66.2404 94.8195 65.4982H90.9846V66.7997Z" fill="#59B039"/>
<path fill-rule="evenodd" clip-rule="evenodd" d="M49.5569 66.7997H49.8628C50.0974 65.7671 49.975 65.8209 51.0969 65.8209V68.8971C51.0969 69.5748 50.7603 68.9832 50.4748 69.7038H52.4737C52.127 69.2091 52.5757 69.4457 51.8618 69.3812V65.8209C52.9633 65.8209 52.5349 65.8317 52.8205 66.2619C53.2387 66.9073 52.5349 66.4985 53.2387 66.7997C53.4732 66.3587 53.3916 66.2404 53.3916 65.4982H49.5569V66.7997Z" fill="#59B039"/>
<path fill-rule="evenodd" clip-rule="evenodd" d="M73.4928 65.8209V69.3812C72.6871 69.4565 73.2174 69.2306 73.0338 69.7038H75.0226C74.6758 69.2091 75.1246 69.4457 74.4107 69.3812V65.8209C75.1246 65.7671 74.6758 66.0038 75.0226 65.4982H72.8809C73.2276 66.0038 72.7789 65.7564 73.4928 65.8209Z" fill="#59B039"/>
</svg>
