<svg width="36" height="36" viewBox="0 0 36 36" xmlns="http://www.w3.org/2000/svg">
<path fill-rule="evenodd" clip-rule="evenodd" fill="currentColor" d="M0 5.20896V29.8632C0.103874 30.1506 -0.0708235 31.7189 1.48257 33.4187C2.0586 34.0494 2.9014 34.59 3.79614 34.853C3.95667 34.8993 4.12901 34.9431 4.30607 34.9748C4.40286 34.9918 4.47368 35.0064 4.57048 35.0186L4.78531 35.0478C4.79239 35.0503 4.79947 35.0527 4.80655 35.0552L4.84905 35.0722H29.151L29.2973 35.0332C31.4669 34.7654 33.1903 33.2945 33.7923 31.1393C33.8395 30.9664 33.8725 30.8154 33.9056 30.6376L34 30.0946V5.14077C33.9103 4.92404 34.0094 3.19502 32.4584 1.59021C30.9192 0 29.2407 0.0925388 29.0376 0H4.98361C4.79475 0.0827979 4.04874 -0.00243523 2.97695 0.540621C2.38203 0.84259 1.89099 1.22005 1.51562 1.61456C-0.0495765 3.27052 0.0967921 4.94108 0 5.20896Z"/>
<path fill-rule="evenodd" clip-rule="evenodd" fill="#FFFFFF" d="M13.0595 11.8815C13.2058 11.9595 13.8527 11.9546 14.1879 12.5244C14.4098 12.9068 14.4618 13.5472 14.4783 14.0659C14.5066 14.9621 14.5774 16.6741 14.1856 17.3608C13.4018 18.7367 11.2724 14.4288 11.0009 13.876C10.8026 13.4693 10.6208 13.0772 10.4414 12.6438C10.2242 12.1251 10.1817 11.7963 9.6741 11.5991C9.31999 11.4627 8.41817 11.5309 7.98143 11.5333C7.38887 11.5382 6.79631 11.5431 6.2014 11.5455C4.91005 11.5552 5.36332 12.3223 5.67258 13.0237C6.6948 15.342 8.3922 18.6028 9.88657 20.5558C10.8993 21.8806 11.9688 23.0787 13.7583 23.8799C14.5845 24.2501 15.5973 24.5594 16.6384 24.5496C17.061 24.5447 18.0171 24.5983 18.3547 24.4863C18.9543 24.2866 18.8953 23.9481 18.9425 23.2638C19.011 22.3068 19.4288 20.8237 20.4699 21.6225C20.9185 21.9658 21.2136 22.3871 21.5653 22.7719C22.0776 23.3296 22.4247 23.8824 23.1872 24.2964C23.7467 24.6008 23.9545 24.5934 24.6462 24.5886C25.2293 24.5837 25.8147 24.5691 26.4002 24.5642C26.896 24.5618 27.6089 24.5983 28.0362 24.4303C29.1529 23.9944 28.2865 22.8596 27.7695 22.2021C27.1793 21.4496 27.0707 21.4179 26.4828 20.775C26.2987 20.5729 26.1901 20.5023 26.0296 20.3269C25.9564 20.2441 25.8856 20.1857 25.8029 20.1126L25.1372 19.4332C24.7571 19.007 24.6698 18.6344 24.9365 18.1084C25.2104 17.5702 26.0272 16.5474 26.4262 16.002C26.9149 15.3347 27.4366 14.6358 27.8852 13.859C28.0976 13.4888 28.3384 13.0797 28.4848 12.6413C28.9026 11.3872 27.9182 11.5479 27.1462 11.5479L24.4762 11.565C23.8057 11.5698 23.3973 11.4432 23.1164 11.9643L22.5828 13.2501C22.3916 13.6666 22.2098 14.0757 21.9997 14.4605C21.7778 14.8623 21.5677 15.2276 21.3364 15.6099C20.9917 16.1749 20.2126 17.3681 19.6744 17.5678C19.1739 17.7529 18.9614 17.0296 18.9142 16.5791C18.7702 15.2276 19.2423 12.052 18.7182 11.4237C18.213 10.8174 16.5841 10.9148 15.6776 10.9221C15.1511 10.9269 14.5444 10.9537 14.051 11.0755C13.6591 11.1729 13.0028 11.526 13.0595 11.8815Z"/>
</svg>
