<svg width="30" height="30" viewBox="0 0 30 30" fill="none" xmlns="http://www.w3.org/2000/svg">
<path fill-rule="evenodd" clip-rule="evenodd" d="M25.3247 15.209V13.5686C25.3247 13.2309 25.2463 12.5193 25.2463 12.1575L25.1498 10.7765C25.0714 9.85984 24.981 8.97937 24.8905 8.06875C24.8483 7.62852 24.794 7.19432 24.7398 6.74805C24.5769 5.49972 24.4081 5.43338 23.2683 5.26453C23.0452 5.23437 22.7979 5.20422 22.5929 5.18613C22.3818 5.16201 22.1466 5.11979 21.9355 5.10773C21.8451 5.69873 22.02 6.49477 22.1164 7.0918C22.1587 7.35714 22.1406 7.19432 22.3939 7.43554C22.5868 7.62249 22.7979 7.8818 22.9306 8.13509C23.8472 9.97442 22.2612 11.9826 20.3254 11.6389C19.7464 11.5363 19.6138 11.3795 19.27 11.1564C19.1856 11.1021 19.2037 11.1263 19.1373 11.0539C18.9926 10.9092 18.9805 10.9393 18.8298 10.7162C18.7996 10.6679 18.7695 10.6438 18.7333 10.5835C18.2629 9.93823 18.1905 8.907 18.5584 8.19539C18.6066 8.10494 18.6911 7.97829 18.7212 7.90593C18.7453 7.83356 18.6428 7.27874 18.6247 7.15813C18.5825 6.88073 18.5463 6.6395 18.5222 6.38019C18.4438 5.63842 18.4076 5.56606 18.4981 4.84239C18.0398 4.84239 17.4427 4.78811 16.9181 4.78811C16.8337 4.78811 16.7311 4.77002 16.6829 4.77002H14.6807C14.4817 4.77002 13.74 4.82429 13.5832 4.89666C13.4806 4.94491 4.38048 14.0812 4.18751 14.2742L1.07572 17.386C0.599305 17.8624 0.201286 18.1519 0.0444906 18.8695C-0.100244 19.551 0.116858 20.2867 0.569152 20.733L2.4507 22.6206C3.28895 23.4588 4.11514 24.291 4.95942 25.1233C5.79767 25.9555 6.62386 26.7817 7.45608 27.6199C7.8722 28.0421 8.28228 28.4461 8.70442 28.8683C9.08434 29.2421 9.47633 29.7547 10.1578 29.9296C10.8754 30.1106 11.5026 29.9357 12.0454 29.4834L13.3058 28.229C14.138 27.3847 14.9702 26.5585 15.8145 25.7263C17.497 24.0679 19.1373 22.3914 20.8138 20.727C21.6521 19.8827 22.4783 19.0565 23.3165 18.2182L24.8724 16.6623C25.192 16.3427 25.192 16.3246 25.2704 15.7939C25.2825 15.7155 25.2946 15.5889 25.3006 15.5105C25.3066 15.4321 25.3247 15.2693 25.3247 15.209ZM15.4466 13.834C15.0486 13.6048 14.7471 13.3817 14.2284 13.2551C13.7098 13.1284 13.74 13.1586 13.2334 13.1586C12.8414 13.1586 12.2323 13.4058 11.9248 13.6531C11.8705 13.6953 11.8162 13.7254 11.7619 13.7797L11.5931 13.9184C11.4664 14.039 11.177 14.4431 11.0986 14.6119C10.5739 15.7698 11.0684 16.9277 11.575 17.9951C11.7257 18.3208 12.0393 18.9781 12.0393 19.3279C12.0393 19.6354 12.0574 19.8465 11.8222 20.1118C11.1951 20.8174 10.0854 19.9852 9.69343 19.4123C9.64519 19.352 9.59091 19.2917 9.53664 19.2253C9.32557 18.954 9.18686 18.7067 9.02404 18.3931C8.8793 18.1217 8.71648 17.7358 8.63808 17.4162C8.61396 17.4403 8.3064 17.6152 8.25212 17.6514C8.08327 17.7478 7.98075 17.8082 7.83601 17.8986C7.67319 18.0011 7.13646 18.2785 7.02791 18.3871C7.07616 18.8394 7.81792 20.0455 8.21594 20.4797C8.28228 20.5521 8.39686 20.6606 8.43304 20.733C8.30037 20.932 7.43196 21.6798 7.38372 21.8306L8.42701 22.8678C8.51144 22.8316 8.91549 22.4155 9.01801 22.319C9.13259 22.2045 9.48839 21.8004 9.60297 21.7522C9.73565 21.8064 9.88038 21.9331 10.0191 22.0054C10.7367 22.3492 11.0021 22.4819 11.8644 22.4819C12.3529 22.4819 12.8595 22.2406 13.2394 21.9994L13.3419 21.927C13.3419 21.927 13.348 21.921 13.354 21.921L13.5952 21.716C13.8726 21.4386 13.8244 21.4808 14.0234 21.2034C14.2224 20.926 14.4516 20.4134 14.4516 20.0515C14.4516 19.2917 14.4274 19.153 14.1319 18.3449C13.8545 17.585 12.8776 16.0472 13.4746 15.4321C13.9088 14.9919 14.4817 15.2452 14.8677 15.5587C15.3562 15.9628 15.8808 16.6684 16.122 17.2835L16.303 17.7298C16.3814 17.7056 16.5924 17.573 16.6889 17.5187L17.8589 16.8312C17.8287 16.4995 17.2437 15.5768 16.9844 15.2753C16.912 15.1848 16.6467 14.9074 16.6226 14.829C16.7794 14.6361 17.5211 13.9727 17.5754 13.84C17.4427 13.6712 17.2136 13.4722 17.0508 13.3093C16.9422 13.1948 16.6346 12.8631 16.514 12.7907C16.3633 12.9053 16.1462 13.1525 15.9954 13.3033C15.8748 13.4239 15.5612 13.7677 15.4466 13.834Z" fill="white"/>
<path fill-rule="evenodd" clip-rule="evenodd" d="M21.0854 5.59623C21.0854 4.78813 21.1095 4.49866 21.4774 3.71469C21.7548 3.11766 22.4121 2.47239 23.0091 2.19498C23.1177 2.14673 23.2021 2.09246 23.3167 2.05025C23.7569 1.88742 24.2394 1.77284 24.7882 1.80902C25.5239 1.85727 26.1933 2.05628 26.73 2.49651C26.8144 2.56888 26.8808 2.62918 26.9592 2.69552C27.1401 2.84628 27.4175 3.20209 27.5562 3.42522C27.6648 3.60614 27.7552 3.78706 27.8457 4.01019C27.9301 4.2092 28.0085 4.44439 28.0567 4.67355C28.2075 5.39722 28.1894 5.89776 28.1472 6.63952C28.099 7.5622 27.8698 8.86481 27.6165 9.72719C27.3934 10.5112 27.2426 10.9333 26.929 11.6811C26.8024 11.9887 26.6637 12.2902 26.5069 12.5797C26.3501 12.8691 26.133 13.1646 26.2837 13.5928C26.3983 13.9124 26.736 14.1898 27.0074 14.1898C27.52 14.1898 27.707 14.1114 28.0025 13.6049C28.0809 13.4722 28.1593 13.3094 28.2377 13.1526C28.9734 11.6027 29.4558 10.1734 29.7453 8.46076C29.9986 6.92296 30.1494 4.97508 29.5945 3.5398C28.8709 1.66429 27.5019 0.397864 25.4937 0.0722124C24.7459 -0.0483993 23.9439 -0.024277 23.2081 0.192824C22.7317 0.331528 22.1287 0.566721 21.7307 0.850158C21.5739 0.958709 21.4653 1.04314 21.3085 1.15169C21.2 1.21802 21.019 1.38688 20.9286 1.47734L20.5788 1.85124C20.5064 1.9236 20.4823 1.96582 20.428 2.04421C20.3858 2.10452 20.3135 2.18895 20.2713 2.24925C19.9697 2.63521 19.7104 3.19003 19.5476 3.66041C19.1194 4.92684 19.2883 6.07265 19.5054 7.40541L19.831 9.20855C19.8793 9.43772 19.8913 9.57642 20.0119 9.75131C20.2049 10.0106 20.5728 10.2458 21.0251 10.1011C21.3507 9.99856 21.6402 9.70909 21.6523 9.30504C21.6523 9.00955 21.5015 8.39443 21.4472 8.08083C21.3748 7.67678 21.2965 7.25464 21.2361 6.86869C21.212 6.66365 21.1758 6.45258 21.1517 6.2415C21.1276 6.0425 21.0854 5.78318 21.0854 5.59623Z" fill="white"/>
</svg>
