<svg width="30" height="27" viewBox="0 0 30 27" fill="none" xmlns="http://www.w3.org/2000/svg">
<path fill-rule="evenodd" clip-rule="evenodd" d="M22.7804 21.657C22.6532 21.7094 21.7997 22.5778 21.62 22.7575C20.8789 23.4762 21.6051 23.0794 20.8714 23.7532C20.789 23.8355 20.7217 23.9179 20.6094 24.0376C19.4115 25.2954 18.6629 24.12 17.8094 23.289C17.4651 22.9521 16.9111 22.5703 17.0608 21.7468C17.1357 21.335 17.8244 20.7211 18.064 20.4966C18.3784 20.2121 18.2961 20.5639 18.7752 20.0623C19.0597 19.7704 20.3548 18.61 20.4821 18.2955C19.2169 18.4004 17.9068 17.3298 17.4426 16.117L17.2929 15.6603C17.1731 15.3833 16.1624 15.3234 16.1175 15.3309C15.9528 15.3609 16.1325 15.2785 16.0127 15.3833C15.8705 15.563 16.095 16.3416 14.4106 17.1875C12.7112 18.0485 10.1808 17.9362 8.48133 17.195C7.5605 16.7983 7.05891 16.2592 6.85678 15.3234C6.12311 15.3085 4.79052 15.7576 4.22904 16.0421C1.96065 17.2025 0.358548 19.3212 0.0590902 21.9414C-0.569771 27.3616 3.92958 26.9948 8.37652 26.9948L16.9635 26.9798C20.9612 26.9199 23.3569 26.1039 22.7804 21.657Z" fill="white"/>
<path fill-rule="evenodd" clip-rule="evenodd" d="M4.72311 7.42524C5.01508 8.0541 5.8311 7.91186 6.63215 7.91186H16.2148C17.0009 7.91186 17.8019 8.0541 18.1388 7.4477C18.3185 7.12578 18.2286 6.71403 18.034 6.48944C17.8394 6.26484 17.5923 6.2349 17.1955 6.18249C17.1281 5.96538 17.1431 5.52368 17.0907 5.2392C17.0308 4.95472 16.9709 4.6852 16.8811 4.40072C16.7089 3.87667 16.4768 3.44994 16.1998 3.0307C15.7581 2.36441 14.7924 1.3762 13.9838 1.09171C13.9614 1.75052 13.7218 2.73124 13.602 3.40502C13.5272 3.82426 13.5197 4.25848 12.9807 4.11623C12.5614 4.01142 12.7261 3.45743 12.786 3.09808C12.9282 2.33446 13.0855 1.5409 13.1978 0.807228C13.2502 0.50777 13.1903 0.462851 13.0256 0.320609C12.5464 -0.0986315 12.0673 0.0136651 11.3711 0.0136651C10.9518 0.0136651 10.4727 -0.03874 10.1283 0.133448C9.76148 0.313123 9.60427 0.447879 9.69411 0.912038C9.84383 1.66817 9.95613 2.44676 10.0984 3.20289C10.1732 3.5847 10.278 4.08629 9.82138 4.13869C9.33476 4.1911 9.32727 3.71945 9.25989 3.33764L8.87808 1.22647C8.84814 1.14412 8.84814 1.1516 8.82568 1.12166C7.48561 1.72806 6.47494 3.0307 5.98832 4.43066C5.48673 5.86806 6.02575 6.11511 5.43432 6.20495C5.1723 6.24987 5.01508 6.2873 4.82792 6.51189C4.6183 6.77392 4.58087 7.1183 4.72311 7.42524Z" fill="white"/>
<path fill-rule="evenodd" clip-rule="evenodd" d="M27.2946 22.1885C27.2347 21.4324 28.3502 21.35 28.3876 22.0912C28.4325 22.8548 27.347 22.8473 27.2946 22.1885ZM26.5983 22.5329C26.8529 22.765 27.0849 23.1468 27.5117 23.2665C28.44 23.5286 29.286 22.6227 28.9566 21.7243C28.8293 21.3725 28.4325 21.0206 28.2229 20.811C26.6358 19.2388 24.869 17.3747 23.3118 15.9149C23.4091 15.1662 23.7385 14.3652 22.9225 13.2347C22.5407 12.7107 21.7546 12.0893 20.7514 12.0893C20.6017 12.1791 20.3247 12.4786 20.2199 12.6133C20.4295 12.8754 20.729 13.1299 20.976 13.3844C21.5375 13.9534 21.5375 13.7962 21.5225 14.3502C21.5075 15.2111 21.5824 14.994 21.1033 15.4507C20.6017 15.9373 20.7065 15.8175 19.6359 15.8026L18.3857 14.4924C18.2285 14.5673 18.1911 14.6347 18.0638 14.7545C17.959 14.8593 17.9141 14.9192 17.8018 14.9865C17.8167 15.4956 17.9515 15.9448 18.1761 16.3341C18.6103 17.0753 19.3065 17.5619 20.1824 17.7116C20.9011 17.8389 21.0958 17.6442 21.6722 17.5843L26.5983 22.5329Z" fill="white"/>
<path fill-rule="evenodd" clip-rule="evenodd" d="M26.4489 12.6583C26.4714 12.4786 26.6436 12.3588 26.7559 12.2765C26.681 12.1118 26.6735 12.1342 26.5463 12.0069C25.7153 11.1984 25.7677 11.1235 24.742 12.1492C24.5549 12.3438 23.9559 12.8155 24.0233 13.1823C24.0682 13.3994 24.6896 13.9834 24.8468 14.1106C25.004 14.0283 25.019 13.9684 25.1463 13.8636C25.2885 14.0133 25.4233 14.208 25.4158 14.5074C25.4158 14.8518 25.2586 14.9267 25.0864 15.0914C24.7944 15.3758 24.4875 15.7127 24.218 15.9897C24.3827 16.3266 25.4308 17.1277 25.5655 17.4271C26.0372 17.1726 26.3142 16.5288 26.8233 16.3266C27.1826 16.1844 27.3997 16.3491 27.4671 16.671C27.5719 17.0977 27.3847 17.2774 27.265 17.6143L27.8189 18.2057C28.3205 18.0335 29.2189 16.8507 29.2189 15.9523C29.2189 14.5523 28.9719 14.4775 28.2831 13.7588C26.9206 12.3513 27.3548 13.1748 26.4489 12.6583Z" fill="white"/>
<path fill-rule="evenodd" clip-rule="evenodd" d="M23.1546 20.1897C23.2294 19.9276 23.1321 19.8977 22.9899 19.7554C22.7578 19.5308 21.7396 18.4303 21.5674 18.4229C21.4177 18.4229 21.1482 18.5127 21.0509 18.595C20.8562 18.7448 20.5418 19.0966 20.3471 19.2838L18.9622 20.6912C18.6777 20.9608 18.775 20.7886 18.4905 20.9308C18.4082 20.9682 18.1985 21.1853 18.1237 21.2602C17.3226 22.0238 17.5098 22.1885 18.2509 22.8997C18.498 23.1318 18.7001 23.3564 18.9397 23.6035C19.5386 24.2174 19.8306 24.12 20.5942 23.2291C20.7664 23.0345 20.6616 22.9596 20.8113 22.75L22.5631 21.0057C22.9899 20.5715 23.0423 20.6388 23.1546 20.1897Z" fill="white"/>
<path fill-rule="evenodd" clip-rule="evenodd" d="M5.77107 8.72042C5.68872 9.30437 6.14539 10.9065 6.32506 11.4155C7.05125 13.5192 8.80307 15.9823 11.4682 15.9748C14.1035 15.9748 15.8852 13.4294 16.5665 11.3631C16.7387 10.8241 17.1804 9.31934 17.1055 8.72791L16.4318 8.7354C16.3419 9.13967 16.3195 9.54393 16.2221 9.97066C15.9676 11.0936 15.5858 12.0444 14.9644 12.9577C13.6693 14.8668 11.2736 15.8325 9.26723 14.3577C8.69826 13.9385 8.88542 14.0208 8.53356 13.6989C7.83732 13.0626 7.28333 11.977 6.95392 11.0337C6.72184 10.3824 6.45982 8.77283 6.39993 8.75786C6.19031 8.70545 5.99566 8.72042 5.77107 8.72042Z" fill="white"/>
<path fill-rule="evenodd" clip-rule="evenodd" d="M27.2948 22.1885C27.3472 22.8473 28.4327 22.8548 28.3878 22.0912C28.3504 21.35 27.2349 21.4324 27.2948 22.1885Z" fill="white"/>
</svg>
