<svg width="26" height="26" viewBox="0 0 26 26" fill="none" xmlns="http://www.w3.org/2000/svg">
<path fill-rule="evenodd" clip-rule="evenodd" d="M14.8955 23.7798C14.7986 23.8565 14.3908 23.8872 14.2379 23.9025C13.1572 24.1685 10.904 23.9383 9.79269 23.6059C8.40102 23.1917 7.44265 22.7263 6.41291 22.0205L5.5565 21.3608C5.50042 21.3096 5.45455 21.2738 5.38318 21.2074C4.42481 20.3533 3.49193 19.2537 2.90059 18.0775C2.77315 17.8218 2.15633 16.5841 2.17672 16.3386C2.14613 16.3028 2.16143 16.3284 2.13594 16.2722C2.13084 16.2722 2.11045 16.2159 2.10535 16.2108L1.83008 15.1317C1.78929 15.0396 1.73322 14.7993 1.76381 14.6816C1.68734 14.5794 1.64146 14.0373 1.63636 13.935L1.58029 13.2957C1.51912 10.9483 1.95242 9.03557 3.12999 7.01035C3.22175 6.85181 4.09346 5.48632 4.31776 5.37892C4.35344 5.30733 4.36364 5.29198 4.41971 5.23061C4.48598 5.1539 4.46049 5.17436 4.55735 5.12321C4.55735 4.9391 6.20901 3.54804 6.54036 3.37927C6.60663 3.34859 6.55565 3.36393 6.61682 3.3537L6.93288 3.12356C7.05522 3.04685 7.16228 2.97525 7.29482 2.92922C7.35599 2.81671 8.40612 2.37178 8.64061 2.26949C9.04333 2.09561 9.72132 1.86547 10.1801 1.78365C10.7715 1.59442 11.8369 1.49214 12.5149 1.48702C13.1929 1.48191 14.2175 1.51259 14.819 1.68136L15.4257 1.80922L15.9915 1.97798C16.1087 1.99333 17.113 2.31552 17.2353 2.4536C17.4138 2.4536 17.842 2.71954 18.0102 2.80648C18.2804 2.94457 18.5047 3.08777 18.7443 3.24119C19.2183 3.53781 19.6873 3.89069 20.0646 4.22823C20.8292 4.90842 21.6092 5.73692 22.2107 6.72907C24.6066 10.6823 24.5505 15.2749 21.9252 19.1924C21.6296 19.6271 21.446 19.8112 21.1555 20.1743C21.0688 20.2817 20.9618 20.3789 20.8751 20.476C20.243 21.1716 19.2795 21.9745 18.2804 22.5268C17.7706 22.8132 17.3016 23.0382 16.7205 23.2735C16.3993 23.4013 15.237 23.79 14.8955 23.7798ZM10.7511 4.37143C10.7103 4.86751 10.802 8.89749 10.9091 9.14297C11.3934 9.2606 11.8878 8.75429 12.0663 8.51393C12.1835 8.3605 12.1223 7.85419 12.1172 7.61894C12.1172 7.3172 12.1172 7.01547 12.107 6.71884C12.0918 6.36596 12.1529 5.1539 12.0255 4.95445C11.8471 4.67317 11.2761 4.34074 10.7511 4.37143ZM9.71113 4.41746L8.99745 4.60668C8.93628 4.65271 8.54885 4.78568 8.42141 4.85216C8.2124 4.95956 8.06967 5.05162 7.89635 5.17436C7.85556 5.22038 7.87595 5.20504 7.80459 5.22038C7.74341 5.32267 7.62107 5.38915 7.52931 5.48121C7.46814 5.55281 7.3407 5.70112 7.28972 5.78295L7.22345 5.82897C7.19286 5.95683 6.93288 6.23811 6.79014 6.87227C6.64231 7.54734 6.73917 8.94352 6.81053 9.65951C6.83093 9.87942 6.96856 10.8511 6.94307 10.9687C6.94817 10.9739 6.94817 10.9841 6.95327 10.9943L6.97876 11.071C6.98895 11.0966 6.98895 11.1222 6.99405 11.1477C7.00425 11.1938 7.00935 11.2398 7.01444 11.2807C7.03993 11.4137 7.06032 11.5211 7.07052 11.6489L7.18776 12.1655L7.49363 13.3673C7.53951 13.4696 7.66695 13.8276 7.66185 13.9452C7.75871 14.0373 7.86576 14.4106 7.93203 14.5589C8.01359 14.743 8.14613 14.9732 8.20221 15.1522C8.20221 15.1522 8.90569 16.2006 8.91589 16.2773C8.99235 16.3284 9.01274 16.3693 9.05352 16.4512C9.5582 17.1109 9.9966 17.7911 10.5472 18.3946C10.6338 18.4917 10.7154 18.5531 10.7511 18.6503C10.8785 18.7423 10.955 18.8293 11.0569 18.9418C11.1079 18.998 11.1436 19.0338 11.1997 19.0901C11.2659 19.1566 11.2812 19.1617 11.322 19.2435C11.373 19.2537 11.3322 19.2384 11.3781 19.2691C11.3883 19.2742 11.4087 19.2946 11.424 19.3049C11.4494 19.3304 11.4698 19.3509 11.4953 19.3765L11.9592 19.7907C12.1784 19.98 12.3874 20.1385 12.6423 20.3021C12.8921 20.4709 13.1113 20.5937 13.407 20.7369C13.8607 20.9619 13.9422 20.9312 14.2379 21.0488C14.4724 21.0948 14.5794 21.1255 14.8445 21.1255H15.4359C15.7009 21.1255 15.7723 21.0795 16.0119 21.0284C16.1597 20.967 16.4299 20.9005 16.5981 20.8391C16.802 20.7675 16.9805 20.6908 17.1793 20.6192C17.3832 20.5272 17.582 20.4402 17.791 20.3379C17.8929 20.2868 17.9745 20.2459 18.0765 20.1845C18.1325 20.1538 18.1733 20.1334 18.2243 20.1027C18.3466 20.0209 18.2906 20.072 18.3313 19.9697C18.1835 19.9339 15.7264 17.9394 15.4613 17.7399C15.1912 17.5303 14.7426 17.1518 14.4979 16.9933C14.2481 17.07 14.1308 17.1774 13.8148 17.2234C12.9941 17.3461 12.6576 16.8092 12.2753 16.1648C11.842 15.4283 11.4342 14.6868 11.0365 13.9043C10.6491 13.1423 10.2311 12.3342 9.84877 11.5876C9.31861 10.5545 9.5531 9.67996 10.4656 9.24526C10.4911 8.9384 10.4554 8.37073 10.435 8.04342C10.4197 7.6394 10.4044 7.22515 10.3993 6.82624L10.3483 4.99025C10.3432 4.83171 10.333 4.59134 10.328 4.37654L9.71113 4.41746ZM0.881903 8.08433C0.846219 8.22753 0.723874 8.63155 0.637213 8.72361C0.637213 8.85146 0.535259 9.15831 0.484282 9.28106L0.173322 10.621L0.127443 11.0097C0.11215 11.1733 0.086661 11.7563 0.0254885 11.8535V12.2166L0.0152931 12.7945C0.0152931 12.9224 0.0305862 13.0298 0 13.1423C0.0713679 13.2804 0.0611725 13.7918 0.0764656 13.9963C0.0968564 14.1498 0.137638 14.339 0.11215 14.4975C0.188615 14.6049 0.219201 15.0038 0.239592 15.1624L0.514868 16.3028L0.703483 16.9217C0.749363 16.9881 1.13169 17.9905 1.13169 18.0314C1.15718 18.057 1.15208 18.0468 1.17757 18.0826L1.7842 19.2589C1.79949 19.2691 2.27867 20.0055 2.34494 20.1027C2.77825 20.6959 3.15548 21.1664 3.66015 21.6779C4.82753 22.8695 6.33645 23.9179 8.02379 24.5827C9.53781 25.1862 11.0824 25.4931 12.8972 25.4879C15.6449 25.4726 17.4698 24.5265 17.7145 24.5111C17.8216 24.3884 18.1784 24.2759 18.3263 24.2094C18.5302 24.1122 18.7239 23.9741 18.9584 23.8974L19.6517 23.4627C20.8649 22.6854 22.1852 21.4784 23.0161 20.3124L23.5004 19.6066C23.5412 19.5401 23.6585 19.2793 23.7298 19.2589C23.791 19.0799 24.0918 18.5735 24.2192 18.3076L24.3313 18.0724C24.3823 17.9956 24.3415 18.0468 24.3925 18.0008C24.3925 17.8729 24.5404 17.6019 24.5964 17.4587C24.6423 17.3513 24.7596 16.9575 24.8105 16.9217L24.9584 16.4154C24.9686 16.3847 24.9686 16.3796 24.9788 16.3489L25.0297 16.267C25.0144 16.1494 25.1113 15.8221 25.1521 15.7198L25.4121 14.4259C25.3815 14.2981 25.4121 14.0782 25.4426 13.9657C25.4732 13.3724 25.4987 12.7996 25.4834 12.1808L25.4477 11.6438L25.3866 11.0352C25.3662 10.9687 25.198 9.96124 25.2082 9.9101L25.1572 9.81805C25.1572 9.81293 25.1419 9.75156 25.1419 9.74645L25.0348 9.2964C24.9788 9.17366 24.8666 8.87703 24.8819 8.74406C24.8156 8.66224 24.6678 8.23265 24.6321 8.12525C24.5658 7.93602 24.4435 7.71611 24.3976 7.52689C24.2906 7.39903 24.2141 7.14844 24.1223 6.96944C23.8114 6.38642 23.5871 5.98751 23.1997 5.44029C22.1087 3.87535 20.5489 2.44338 18.8564 1.55351C18.729 1.48702 17.7961 1.03186 17.7808 1.0114C17.633 0.980717 17.4953 0.909118 17.3628 0.857976C17.2353 0.811948 17.0671 0.776149 16.9907 0.699436C16.8836 0.694322 16.175 0.474411 16.0425 0.418155C15.9558 0.407927 15.3849 0.285186 15.3186 0.234044C15.181 0.249387 14.3195 0.0959611 14.0697 0.0652759C12.7596 -0.0728074 11.3832 0.0141339 10.1138 0.269844C6.30586 1.03697 2.98216 3.67078 1.31011 7.13821C1.22855 7.30186 1.15718 7.4604 1.08581 7.61894C1.03993 7.71611 0.922685 8.02808 0.881903 8.08433Z" fill="white"/>
</svg>
