<svg width="31" height="32" viewBox="0 0 31 32" fill="none" xmlns="http://www.w3.org/2000/svg">
<path fill-rule="evenodd" clip-rule="evenodd" d="M13.0522 23.9641C13.0522 24.1144 13.8578 25.0884 14.1284 25.2688L13.3288 27.3008C13.2386 27.5233 13.1484 27.7878 13.0522 27.9742C13.1905 28.1786 13.3288 28.365 13.4731 28.5634C13.5572 28.6656 13.6294 28.7197 13.7075 28.8159L15.0723 29.9943C15.1564 29.9401 15.2587 29.85 15.3428 29.7778C15.9921 29.2548 16.6294 28.6716 17.0923 27.9742L16.0222 25.2988L17.0923 23.9641C17.0202 23.8259 16.9841 23.8078 16.8879 23.6816C16.7917 23.5613 16.1785 22.9541 16.0823 22.9541C13.3228 22.9541 14.3208 22.8218 13.5272 23.4291C13.3889 23.5373 13.3889 23.5433 13.2867 23.6756C13.2266 23.7477 13.0522 23.8619 13.0522 23.9641ZM30.0604 31.84L30.0303 31.2568C30.0303 31.0464 30.0303 30.842 30.0303 30.6375L29.9341 28.8399C29.886 28.2267 29.8379 27.7938 29.6876 27.1926C29.4532 26.2367 29.1285 25.3589 28.371 24.7637C27.9501 24.4331 27.2407 24.0543 26.7658 23.8619C24.9802 23.1225 22.4551 22.5393 20.4952 21.9802C20.3028 21.92 20.1705 21.878 19.9902 21.8359C20.0924 22.2928 20.0924 22.5573 20.0864 23.0383C20.0864 23.2247 20.0503 23.2667 20.0503 23.4651C20.0503 24.5473 18.9801 26.3209 18.4631 27.1866C18.1204 27.7457 17.7897 28.2508 17.3809 28.7498C17.2487 28.9181 17.1164 29.0504 16.9601 29.2067C16.8759 29.2969 16.8519 29.351 16.7677 29.4411C16.449 29.7718 15.7096 30.3911 15.3128 30.6556C15.2106 30.7277 15.1264 30.7698 15.0302 30.8299C14.5733 30.5895 14.1464 30.1987 13.7737 29.9041L13.1003 29.2367C12.9681 29.0684 12.8358 28.9421 12.6975 28.7618C12.5592 28.5874 12.445 28.4492 12.3127 28.2688C11.97 27.8179 11.5432 27.1686 11.2847 26.6576L10.6714 25.5092C10.3227 24.8118 10.1123 24.385 10.0041 23.5373C9.97404 23.2788 9.98005 22.9842 9.98005 22.6776C9.97404 22.4972 10.0101 22.0162 10.0402 21.8659C9.88386 21.8719 9.69147 21.9441 9.54117 21.9862C8.08624 22.407 6.58924 22.7617 5.15836 23.2066C3.9319 23.5854 2.2906 24.1385 1.36474 25.0523C0.667341 25.7437 0.330664 27.2347 0.180362 28.2387C0.0841691 28.9241 0.0360725 30.5353 0.0360725 31.2207L0 31.84H30.0604ZM15.4991 0H15.5352C17.3929 0 19.7196 0.739486 21.1926 1.93589C21.403 2.10423 21.5713 2.24852 21.7818 2.42287C22.4731 3.00003 23.2547 4.16036 23.5914 4.94794C23.7357 5.28462 23.9461 5.76558 24.0243 6.14434C24.0724 6.34274 24.1084 10.3949 24.0183 10.6714C23.9641 10.8398 23.7898 10.954 23.5854 10.954C23.0924 10.954 23.1104 10.6233 23.0683 10.2326C23.0443 10.0522 23.0683 9.83576 23.0623 9.64939C23.0563 9.46902 23.0263 9.35479 23.0263 9.12633C23.0323 8.74757 23.0263 8.36881 23.0323 7.99005C23.0323 7.76159 22.9962 7.67742 22.9962 7.467C22.9962 6.53513 22.8519 6.04214 22.4431 5.21848C21.8058 3.93791 20.6635 2.72347 19.3649 2.06815C18.7096 1.73148 18.0663 1.45492 17.3509 1.28057C16.7857 1.13628 16.0522 1.01003 15.3669 1.01003C13.7496 1.01003 12.7697 1.18438 11.3448 1.77958C9.64337 2.489 7.83975 4.30465 7.32872 6.10827C7.04616 7.10026 7.08824 8.9099 7.08824 10.0101C7.42492 10.0883 7.56921 10.4189 7.67742 10.7255C7.69546 10.7797 8.03214 11.6694 8.05017 11.6213C8.05017 11.6153 8.05618 11.6334 8.0622 11.6394C8.05618 11.2726 7.966 10.8698 7.91189 10.4851C7.82171 9.82975 7.83374 9.11431 7.83374 8.44697C7.83374 6.58924 8.38685 5.15836 9.60129 3.94994C9.68546 3.87178 9.73355 3.85374 9.81772 3.77558C10.3408 3.28259 11.1644 2.81365 11.9039 2.5371C12.6314 2.27257 13.6594 1.99 14.6514 1.99C16.0222 1.99 17.0382 2.06214 18.2587 2.55513C19.0823 2.87979 20.2006 3.48701 20.7717 4.20845L21.1505 4.64734C21.9922 5.75957 22.3108 7.08824 22.3108 8.47703L22.2808 9.87784C22.2687 10.0281 22.2507 10.0582 22.2447 10.2386C22.2387 10.6895 22.0944 11.1524 22.0824 11.6093H22.3108C22.6896 11.6093 23.0263 12.2045 23.0263 12.5532C23.0263 13.5873 23.0503 14.0442 22.5152 15.0061C22.2928 15.409 22.0403 15.5593 21.6916 16.2386C21.3489 16.906 21.0122 17.6094 20.5974 18.2406L19.2867 19.9962C18.6855 20.6214 17.9941 21.1685 17.1945 21.5172C15.6254 22.2086 13.9901 22.0703 12.4991 21.2888C11.964 21.0122 11.7296 20.7477 11.3087 20.423C11.2125 20.3449 11.1885 20.3268 11.1043 20.2367C11.0322 20.1645 10.9781 20.1164 10.9059 20.0443C10.8217 19.9601 10.8097 19.912 10.7316 19.8338C9.79367 18.8238 9.15639 17.6034 8.54316 16.3769C8.17643 15.6494 8.48304 15.944 7.50909 15.944C6.9199 15.944 6.33673 15.415 6.07821 14.9641C5.7716 14.429 5.60326 13.8458 5.38081 13.2807C5.11027 12.6013 4.92389 11.465 5.36277 10.7977C5.56718 10.4851 5.75957 10.3588 6.07821 10.2025C6.07821 7.12431 5.73552 5.74153 7.47902 3.39682L7.88785 2.92187C8.48304 2.14631 9.8538 1.26855 10.8037 0.847703C12.445 0.114229 13.6174 0 15.4991 0ZM10.2807 17.5733C10.4971 17.6214 11.4049 18.2406 12.4871 18.5653C12.7035 18.6254 12.8839 18.6735 13.1003 18.7336C13.3228 18.7998 13.5091 18.8659 13.7316 18.92C14.0803 18.9982 14.8619 18.9982 15.2587 18.932C16.2506 18.7757 16.3048 17.429 15.5653 17.0803C15.3007 16.9601 14.5192 16.942 14.0923 16.9541C13.8278 16.9601 13.6534 17.0382 13.4911 17.1645C13.3588 17.2607 13.1604 17.441 13.1184 17.6034C12.6735 17.6034 11.6274 17.0743 11.3027 16.8759C11.0262 16.7136 10.7857 16.5693 10.5332 16.3769C10.2867 16.1905 10.0462 16.0222 9.83576 15.8058C9.64939 15.6194 9.70349 15.7156 9.52313 15.4991C9.07223 14.958 9.31872 15.439 9.07223 14.6755C8.84978 13.9841 8.54316 13.1604 8.3628 12.5171C8.33875 12.433 8.32673 12.3248 8.29066 12.2586C8.42292 12.1745 8.51911 12.0061 8.73555 12.1083C9.15639 12.3127 9.36081 13.1845 9.56522 13.3348C9.56522 13.1364 9.51712 12.9861 9.48105 12.7997C9.44497 12.6133 9.41491 12.463 9.38485 12.2767C9.24056 11.5071 8.90389 9.57123 9.23455 8.89787C9.42093 8.53114 9.70951 8.09226 9.98005 7.78564C10.2686 7.45498 10.6354 7.14235 11.0322 6.94395C11.3147 6.79966 11.6334 6.69745 11.9761 6.6193C12.0181 6.68543 12.2947 6.9199 12.3668 6.98002C12.6674 7.20848 12.932 7.52111 13.437 7.8638C13.5272 7.92392 13.5753 7.966 13.6655 8.02612C13.9841 8.24256 14.2907 8.42292 14.6394 8.61531L15.7216 9.10229C16.6895 9.45099 17.2126 9.58325 18.2046 9.75159C18.8539 9.85981 20.3569 10.0101 21.0723 10.0101C21.0242 10.2265 21.0182 10.6414 20.9882 10.8698L20.7176 12.4931C20.6695 12.7396 20.5854 13.0582 20.5854 13.3348C20.7296 13.2266 20.898 12.6614 21.1986 12.2887C21.2467 12.2226 21.3369 12.1504 21.409 12.1083C21.7156 11.94 22.407 12.5171 21.8178 14.0803C21.6074 14.6454 21.3369 14.8138 21.1445 15.1023L20.7056 15.9019C20.6515 16.0102 20.6274 16.0823 20.5733 16.1965C20.4771 16.3889 20.411 16.5513 20.3148 16.7496C19.9421 17.4831 19.2627 18.7637 18.6855 19.3288C18.4631 19.5453 18.415 19.6595 18.0543 19.9361C17.5553 20.3268 17.3809 20.429 16.7256 20.6936C16.0042 20.9882 15.7577 20.8379 15.2767 20.91C14.9701 20.9521 14.0322 20.8799 13.7376 20.8018C12.5893 20.5072 11.5552 19.6054 10.9119 18.6374C10.7857 18.4451 10.3227 17.7477 10.2807 17.5733Z" fill="white"/>
</svg>
